<?xml version="1.0" encoding="utf-8"?>
<!-- Generator: Adobe Illustrator 23.1.1, SVG Export Plug-In . SVG Version: 6.00 Build 0)  -->
<svg version="1.1" id="图层_1" xmlns="http://www.w3.org/2000/svg" xmlns:xlink="http://www.w3.org/1999/xlink" x="0px" y="0px"
	 viewBox="0 0 973.8 185.3" style="enable-background:new 0 0 973.8 185.3;" xml:space="preserve">
<style type="text/css">
	.st0{fill:#359EFD;}
	.st1{fill:#A5EB02;}
	.st2{fill:#FFFFFF;}
	.st3{font-family:'MYingHeiPRC-W4';}
	.st4{font-size:96.4215px;}
	.st5{font-size:119.9711px;}
	.st6{enable-background:new    ;}
	.st7{fill:none;}
	.st8{fill:#606060;}
</style>
<ellipse id="椭圆_2_拷贝_1_" class="st0" cx="91.2" cy="89.7" rx="74.2" ry="74.3"/>
<circle id="椭圆_2_拷贝_2_1_" class="st1" cx="75.7" cy="74.2" r="74.2"/>
<text id="P_1_" transform="matrix(0.7071 -0.7071 0.7071 0.7071 59.9986 120.4318)" class="st2 st3 st4">P</text>
<text id="_3_1_" transform="matrix(0.866 0.5 -0.5 0.866 39.0463 99.6107)" class="st2 st3 st5">3</text>
<ellipse id="椭圆_2_拷贝_4_1_" class="st0" cx="91.2" cy="89.7" rx="74.2" ry="74.3"/>
<circle id="椭圆_2_拷贝_5_1_" class="st1" cx="75.7" cy="74.2" r="74.2"/>
<g class="st6">
	<path class="st2" d="M38.3,44.8c4.4-4.4,9.2-6.8,14.2-7c5.1-0.2,10,2,14.7,6.8c4.6,4.6,7,9.4,6.9,14.5c0,5-2.3,9.7-6.6,14.1
		L55.1,85.6c-1.8,1.8-1.8,4.6,0,6.5l13.4,13.4c1.8,1.8,1.8,4.6,0,6.5l0,0c-1.8,1.8-4.6,1.8-6.5,0L20,69.7c-1.8-1.8-1.8-4.6,0-6.5
		L38.3,44.8z M59.8,69.9c3.1-3.1,4.9-6.3,5.1-9.5c0.3-3.2-1.1-6.3-4.1-9.4c-6-6-12.4-5.4-19.3,1.4l-9.7,9.7c-1.8,1.8-1.8,4.6,0,6.5
		L43.2,80c1.8,1.8,4.6,1.8,6.5,0L59.8,69.9z"/>
</g>
<g class="st6">
	<path class="st2" d="M69.3,117.9c-3.8-2.2-7.5-6-10-8.9s-3.4-4.5-4.4-7.7c-0.7-2.1-1-4.2-1-6.4c0-1.5,1.9-2.2,3-1.2
		c4.5,4.5,5.5,5.9,9.4,9.6c3.2,3.2,3.8,3.7,7.4,6.6l0.1,0.1c3.4,2.4,6.3,2.8,9.5,2.9s6.1-0.6,8.6-2c2.4-1.4,4.4-3.4,6-6
		c2.5-4.3,3.1-8.6,1.7-12.8c-1.3-4.2-4.5-7.6-9.5-10.5c-0.8-0.4-1.5-0.9-2.4-1.3c-0.3-0.1-0.7-0.3-1-0.4c-0.9-0.4-1.2-1.5-0.8-2.4
		l2.4-4.3c0.4-0.9,1.5-1.1,2.4-0.6l0,0c0.6,0.3,1.1,0.7,1.8,1c4.3,2.5,8.5,3.4,12.5,2.8c4-0.7,7-2.8,9.1-6.4
		c2.1-3.5,2.7-7.1,1.5-10.5c-1.1-3.5-3.7-6.4-7.9-8.9c-4.3-2.5-8.5-3.2-12.6-1.8c-3.7,1.3-7,4.1-9.9,8.3c-0.6,0.8-1.5,1-2.3,0.6
		l-5.8-3.3c-0.9-0.6-1.1-1.7-0.6-2.5c4.6-6.6,9.9-10.7,15.7-12.4c6.3-1.8,12.8-0.7,19.8,3.3c7.2,4.1,11.6,9,13.5,14.7
		c1.8,5.8,1,11.7-2.4,17.8c-1.8,3.1-4.3,5.4-7.5,7c-3.2,1.5-7,2.2-11.2,1.9l-0.1,0.2c3.8,3.5,6,7.4,6.4,11.8s-0.7,9-3.4,13.7
		c-1.9,3.3-4.3,6-7.1,8.1s-5.9,3.4-9.3,4.1c-3.3,0.7-6.9,0.7-10.6,0C76.7,121.3,73.1,120.1,69.3,117.9z"/>
</g>
<g>
	<path class="st7" d="M711,76.2"/>
	<path class="st7" d="M706,82.5"/>
	<path class="st7" d="M440.9,70.5c-5.4-6.5-13.4-10.3-21.8-10.2c-4.1-0.1-8.2,0.9-11.9,2.7c-3.6,1.8-6.8,4.4-9.4,7.6
		c-2.7,3.4-4.9,7.4-6.2,11.6c-3,9.7-3,20,0,29.7c1.3,4.1,3.4,8,6.1,11.5c2.5,3.2,5.7,5.7,9.4,7.5c3.8,1.8,7.9,2.7,12.2,2.6
		c4.2,0.1,8.3-0.8,12-2.6c3.7-1.7,6.9-4.3,9.5-7.4c2.8-3.4,4.9-7.3,6.2-11.5c3-9.7,3-20.1,0-29.9C445.7,77.9,443.6,74,440.9,70.5z"
		/>
	<path class="st7" d="M251,26.5h-35.3v49.1l36.4,0.1c8.6,0,15.2-2,20-6s7.2-10.2,7.2-18.6C279.3,34.7,269.8,26.5,251,26.5z"/>
	<path class="st7" d="M841.3,48.6c-0.8-3.4-2-6.7-3.7-9.8c-1.4-2.5-3.1-4.8-5.2-6.8c-4.3-3.7-9.9-5.7-15.6-5.6
		c-8.3,0-14.9,3.6-19.7,10.7c-4.9,7.2-7.3,21.4-7.3,42.8c0,20.1,2.2,34,6.5,41.8c4.2,7.9,11.1,11.8,20.6,11.9
		c4.3,0.1,8.6-0.9,12.4-2.9c3.7-2.2,6.6-5.4,8.5-9.3c2.2-4.2,3.8-9.7,4.8-16.5c1.1-8.1,1.6-16.2,1.5-24.4c-0.1-7-0.3-13.1-0.7-18.3
		C843.1,57.6,842.4,53.1,841.3,48.6z"/>
	<g>
		<g>
			<path d="M363.7,46.1c0,0-11.3,0.1-16.1,1.1c-6.1,1.2-11.2,3.8-14.8,9.4c-0.5,0.8-1.8,0.5-1.8-0.5v-4.4l0,0
				c-0.1-4.2-3.7-7.6-7.9-7.5c-4.2,0-7.5,3.3-7.7,7.5l0,0v86c0,4.3,3.6,7.8,7.9,7.7c4.3,0,7.7-3.5,7.7-7.8h0.2v-35.5
				c0-13.5,2.8-23.4,8.4-29.6c5.2-5.8,13-8.9,23.6-9.3c1.5-0.1,2.8-1.3,2.8-2.9V48.4C365.9,47.1,364.9,46.1,363.7,46.1z"/>
		</g>
	</g>
	<path d="M453.4,60c-4.1-4.4-9.1-7.9-14.7-10.2c-6.2-2.5-12.8-3.8-19.4-3.7c-6.6-0.1-13.2,1.1-19.4,3.6c-5.6,2.3-10.6,5.8-14.7,10.2
		c-4.2,4.7-7.3,10.1-9.3,16c-2.3,6.8-3.4,13.9-3.3,21c-0.1,7.1,1,14.2,3.3,20.9c2,5.9,5.2,11.3,9.4,15.9c4.1,4.5,9.1,8,14.7,10.2
		c6.1,2.4,12.7,3.7,19.2,3.6c6.7,0.2,13.3-1.1,19.5-3.7c5.6-2.4,10.6-6,14.7-10.5c4.1-4.7,7.3-10.1,9.3-16
		c2.2-6.6,3.3-13.4,3.3-20.4c0.1-7.1-1-14.2-3.3-20.9C460.7,70.1,457.6,64.6,453.4,60z M447,112c-1.3,4.2-3.4,8.1-6.2,11.5
		c-2.6,3.1-5.8,5.7-9.5,7.4c-3.7,1.8-7.8,2.7-12,2.6c-4.3,0.1-8.4-0.8-12.2-2.6c-3.7-1.8-6.9-4.3-9.4-7.5c-2.7-3.5-4.8-7.4-6.1-11.5
		c-3-9.7-3-20,0-29.7c1.3-4.2,3.5-8.2,6.2-11.6c2.6-3.2,5.8-5.8,9.4-7.6c3.7-1.8,7.8-2.8,11.9-2.7c8.4-0.1,16.4,3.7,21.8,10.2
		c2.7,3.5,4.8,7.4,6.1,11.6C450,91.9,450,102.3,447,112z"/>
	<g>
		<g>
			<path d="M199.3,136.1L199.3,136.1C199.3,136,199.3,136,199.3,136.1L199.3,136.1z M286.1,21.4c-7.3-6.6-16.9-9.9-28.9-9.9h-49.1
				c-2.5,0-8.8,0-8.8,0s0,6.6,0,9.3v115.1l0,0v0.1c0.1,7,7,12,15.4,6.4c0.6-0.4,1-1.1,1-1.8v-4.7l0,0V90.6h42.6
				c12,0,21.5-3.4,28.4-10.2C293.6,73.6,297,63.8,297,51C297,37.9,293.4,28,286.1,21.4z M272.1,69.7c-4.8,4-11.4,6-20,6L221,75.6
				c-2.9,0-5.3-2.4-5.3-5.3V26.4H251c18.8,0,28.3,8.2,28.3,24.6C279.3,59.5,276.9,65.7,272.1,69.7z"/>
		</g>
	</g>
	<path class="st8" d="M877,59.4"/>
	<path d="M849.7,26.7c-3.4-5-8.2-8.9-13.8-11.2c-6.1-2.3-12.5-3.4-19-3.3c-6.6-0.1-13.1,1-19.2,3.5c-5.6,2.4-10.3,6.3-13.7,11.4
		c-3.7,5.3-6.4,12.2-8.3,20.8c-1.9,8.6-2.8,19.3-2.8,32.1c0,12.5,0.9,23.1,2.7,31.7s4.5,15.6,8.2,20.9c3.3,5.1,8.1,9,13.7,11.4
		c6.1,2.4,12.7,3.6,19.3,3.5c6.6,0.2,13.1-0.9,19.1-3.2c5.6-2.3,10.3-6.1,13.8-11.1c3.7-5.2,6.5-12.1,8.4-20.7s2.8-19.5,2.8-32.5
		c0-12.9-0.9-23.7-2.8-32.4C856.2,38.9,853.5,31.9,849.7,26.7z M842.6,104.9c-1,6.8-2.6,12.3-4.8,16.5c-1.9,3.9-4.8,7.1-8.5,9.3
		c-3.8,2-8.1,3-12.4,2.9c-9.5-0.1-16.4-4-20.6-11.9c-4.3-7.8-6.5-21.7-6.5-41.8c0-21.4,2.4-35.6,7.3-42.8
		c4.8-7.1,11.4-10.7,19.7-10.7c5.7-0.1,11.3,1.9,15.6,5.6c2.1,2,3.8,4.3,5.2,6.8c1.7,3.1,2.9,6.4,3.7,9.8c1.1,4.5,1.8,9,2.1,13.6
		c0.4,5.2,0.6,11.3,0.7,18.3C844.2,88.7,843.7,96.8,842.6,104.9z"/>
	<path d="M699.8,75.7c0-3.4,2.7-6.2,6-6.3c12-0.5,17-2.7,21.2-6.2c4.8-3.9,7.5-9.7,7.3-15.8c0.2-6.5-1.8-11.7-6-15.6
		s-10-5.8-17.4-5.8c-7.8-0.1-13.9,2.4-18.2,7.5c-2.4,2.8-3.6,5.9-4.2,9.4c-0.7,3.9-4.1,6.6-8,6.6l0,0c-5,0-8.7-4.4-8-9.3
		c1.1-7.4,4.1-11.9,9.3-17.3c7.1-7.3,16.8-11,29.2-11c12.8-0.1,22.6,3,29.5,9.4s10.4,15.1,10.5,26.1c0.1,5.5-1.5,10.8-4.6,15.3
		c-3.5,4.8-8.2,8.7-13.6,11.3v0.4c7.9,1.8,13.8,5.4,17.8,11s6,12.7,6,21.3c0,5.7-1.1,11.3-3.3,16.5c-2.1,5-5.2,9.3-9.2,12.9
		c-4.2,3.7-9,6.5-14.3,8.3c-6,2-12.2,3-18.8,2.9c-6.2,0.1-12.3-0.9-18.2-2.9c-5.1-1.7-9.9-4.6-13.9-8.3c-3.9-3.7-6.9-8.3-8.8-13.4
		c-0.9-2.4-1.6-6.1-2.1-9.6c-0.7-4.8,3-9.1,7.9-9.1l0,0c3.9,0,7.2,2.8,7.8,6.6c0.8,4.7,2.7,10.9,6.7,15.2c5,5.1,12.4,7.6,20.7,7.6
		c5.3,0.1,10.5-1.2,15.1-3.6c4.1-2.2,7.5-5.4,10-9.4c2.2-3.9,3.3-8.3,3.3-12.8c0-7.9-2.5-14.1-7.6-18.7c-5.1-4.5-12.1-6.8-21-6.8
		h-4.8C702.6,82,699.8,79.2,699.8,75.7L699.8,75.7z"/>
	<path d="M884.8,59.4c4.2,0,7.7-3.2,8.1-7.4c0.5-5.2,2.1-12,7-16.9c5.3-5.3,10.9-8.8,18.7-8.8c3.5,0,7,0.6,10.2,1.9
		c3,1.2,5.7,2.9,8.1,5.2c2.3,2.2,4.1,4.8,5.3,7.7c1.3,3,1.9,6.2,1.9,9.5c0.1,3.9-0.6,7.8-2,11.4c-1.4,3.6-3.5,7-6.1,9.8
		c-3.3,3.6-7,6.8-11,9.6c-4.5,3.2-10,6.7-16.5,10.6c-5.8,3.4-11.2,7.4-16.3,11.8c-4,3.6-7.5,7.6-10.4,12.1
		c-2.7,4.2-4.7,8.7-5.9,13.5c-0.4,1.5-0.8,3-1.1,4.5c-0.6,2.9-0.8,11.4-0.8,11.4s7.2,0,10.3,0h68c3.9,0,7-3.1,7-7l0,0
		c0-3.9-3.1-7.1-7-7.1h-55.4c-1.2,0-4.7-0.1-4.7-0.1s0.4-3.8,1-5.3c0.4-0.9,0.8-1.8,1.3-2.7c1.5-2.7,3.3-5.1,5.5-7.3
		c2.6-2.7,5.5-5.1,8.6-7.2c3.4-2.4,7.5-5,12.2-7.8c7-4.1,13.7-8.6,20.1-13.5c4.6-3.5,8.7-7.6,12.3-12.1c2.8-3.5,4.8-7.6,6-11.9
		c1.1-4.2,1.6-8.5,1.6-12.8c0.1-5.3-0.9-10.6-2.9-15.5c-1.8-4.6-4.7-8.7-8.3-12.1c-3.8-3.5-8.2-6.2-13-7.9
		c-5.5-1.9-11.3-2.9-17.1-2.8c-6.1-0.1-12.2,1-17.9,3.1c-10.5,3.9-18.7,12.2-22.3,22.8c-1.1,3.2-2,7.8-2.5,12.2
		C876.1,55.3,879.9,59.4,884.8,59.4L884.8,59.4z"/>
	<path d="M486.7,140.7L486.7,140.7c-1.9-2.4-1.9-5.8,0-8.2l58.5-73.6c2.6-3.3,7.7-3.3,10.3,0l0,0c1.9,2.4,1.9,5.8,0,8.2L497,140.7
		C494.4,144,489.4,144,486.7,140.7z"/>
	<path class="st1" d="M500,60.1c-2.6-4.3-8.9-4.8-12.2-2c-3.5,2.9-3.3,9.5-0.5,12.2L516,93.6L500,60.1z"/>
	<path class="st0" d="M542,139.4c2.6,4.3,8.9,4.8,12.2,2c3.5-2.9,3.3-9.5,0.5-12.2L526,106L542,139.4z"/>
	<g class="st6">
		<path d="M578.3,168.9c2.1,0.2,4.2,0.4,6,0.4c8.1,0,15-2.7,18.7-15l2.7-9l-33.3-87.1c-1-3.3,0.4-6.9,4.2-8.1h-0.2
			c3.1-1.3,6.7,0.2,7.9,3.5l27.5,71.7l21.5-71.2c1.2-3.1,4.4-5,7.9-4c3.5,1.2,5.2,4.4,4.2,7.9L615,158c-6,19.8-16.7,23.9-29,23.9
			c-2.9,0-6.2-0.2-8.8-0.6c-1.5-0.2-3.3-1-4.4-2.1c-1-1.2-1.2-3.1-1.2-4.8c0.4-3.3,3.3-5.6,6.5-5.4L578.3,168.9L578.3,168.9z"/>
	</g>
</g>
</svg>
